0
SECTION
2
HEADER
9
$INSUNITS
70
4
9
$ACADVER
1
AC1014
9
$HANDSEED
5
FFFF
0
ENDSEC
0
SECTION
2
TABLES
0
TABLE
2
VPORT
5
8
100
AcDbSymbolTable
0
ENDTAB
0
TABLE
2
LTYPE
5
5
100
AcDbSymbolTable
0
LTYPE
5
14
100
AcDbSymbolTableRecord
100
AcDbLinetypeTableRecord
2
BYBLOCK
70
0
0
LTYPE
5
15
100
AcDbSymbolTableRecord
100
AcDbLinetypeTableRecord
2
BYLAYER
70
0
0
ENDTAB
0
TABLE
2
LAYER
5
2
100
AcDbSymbolTable
70
2
0
LAYER
5
50
100
AcDbSymbolTableRecord
100
AcDbLayerTableRecord
2
0
70
0
6
CONTINUOUS
0
ENDTAB
0
TABLE
2
STYLE
5
3
100
AcDbSymbolTable
70
1
0
STYLE
5
11
100
AcDbSymbolTableRecord
100
AcDbTextStyleTableRecord
2
STANDARD
70
0
0
ENDTAB
0
TABLE
2
VIEW
5
6
100
AcDbSymbolTable
70
0
0
ENDTAB
0
TABLE
2
UCS
5
7
100
AcDbSymbolTable
70
0
0
ENDTAB
0
TABLE
2
APPID
5
9
100
AcDbSymbolTable
70
2
0
APPID
5
12
100
AcDbSymbolTableRecord
100
AcDbRegAppTableRecord
2
ACAD
70
0
0
ENDTAB
0
TABLE
2
DIMSTYLE
5
A
100
AcDbSymbolTable
70
1
0
ENDTAB
0
TABLE
2
BLOCK_RECORD
5
1
100
AcDbSymbolTable
70
1
0
BLOCK_RECORD
5
1F
100
AcDbSymbolTableRecord
100
AcDbBlockTableRecord
2
*MODEL_SPACE
0
BLOCK_RECORD
5
1B
100
AcDbSymbolTableRecord
100
AcDbBlockTableRecord
2
*PAPER_SPACE
0
ENDTAB
0
ENDSEC
0
SECTION
2
BLOCKS
0
BLOCK
5
20
100
AcDbEntity
100
AcDbBlockBegin
2
*MODEL_SPACE
0
ENDBLK
5
21
100
AcDbEntity
100
AcDbBlockEnd
0
BLOCK
5
1C
100
AcDbEntity
100
AcDbBlockBegin
2
*PAPER_SPACE
0
ENDBLK
5
1D
100
AcDbEntity
100
AcDbBlockEnd
0
ENDSEC
0
SECTION
2
ENTITIES
0
LINE
5
100
100
AcDbEntity
8
0
100
AcDbLine
10
107.48976928983768
20
0
30
0
11
90.060654471610576
21
47.886099404160845
31
0
0
LINE
5
101
100
AcDbEntity
8
0
100
AcDbLine
10
90.060654471610576
20
47.886099404160845
30
0
11
70.71341445938036
21
0
31
0
0
LINE
5
102
100
AcDbEntity
8
0
100
AcDbLine
10
70.71341445938036
20
0
30
0
11
55.127927002625789
21
29.312038735241622
31
0
0
LINE
5
103
100
AcDbEntity
8
0
100
AcDbLine
10
55.127927002625789
20
29.312038735241622
30
0
11
41.459498864246626
21
0
31
0
0
LINE
5
104
100
AcDbEntity
8
0
100
AcDbLine
10
41.459498864246626
20
0
30
0
11
30.818120680475246
21
16.38628543189035
31
0
0
LWPOLYLINE
5
105
100
AcDbEntity
8
0
100
AcDbPolyline
90
3
70
1
43
0.0
10
107.54302573884107
20
-0.99999999999999811
10
-4.0107809652765702
20
-1.0000000000000053
0
LINE
5
106
100
AcDbEntity
8
0
100
AcDbLine
10
107.95961560028225
20
0.17101007152111158
30
0
11
90.662107454903492
21
47.695523069178527
31
0
0
LWPOLYLINE
5
107
100
AcDbEntity
8
0
100
AcDbPolyline
90
3
70
1
43
0.0
10
89.373843167570726
20
47.520915356031153
10
70.651495748121405
20
1.1814793930595866
10
55.569400799055245
20
29.546774516634571
0
LWPOLYLINE
5
108
100
AcDbEntity
8
0
100
AcDbPolyline
90
3
70
1
43
0.0
10
54.39435642122487
20
28.92199233832136
10
41.38755673394332
20
1.0288203952646016
10
31.261280835086712
20
16.621917865833819
0
LWPOLYLINE
5
109
100
AcDbEntity
8
0
100
AcDbPolyline
90
3
70
1
43
0.0
10
106.95768040359977
20
0
10
90.036304628858957
20
46.491097847206682
10
71.252681830719169
20
0
0
LWPOLYLINE
5
110
100
AcDbEntity
8
0
100
AcDbPolyline
90
3
70
1
43
0.0
10
55.157260347096305
20
28.19184350388408
10
42.011187823727887
20
0
10
70.147129434035861
20
0
0
LINE
5
111
100
AcDbEntity
8
0
100
AcDbLine
10
40.863317217828666
20
1.700029006457271e-15
30
0
11
30.39878539650255
21
16.113965914382842
31
0
0
LINE
5
112
100
AcDbEntity
8
0
100
AcDbLine
10
107.95961560028225
20
0.17101007152111158
30
0
11
108.03520414423349
21
-0.03666774615434798
31
0
0
LINE
5
113
100
AcDbEntity
8
0
100
AcDbLine
10
0
20
0
30
0
11
40.863317217828666
21
1.700029006457271e-15
31
0
0
LINE
5
114
100
AcDbEntity
8
0
100
AcDbLine
10
30.39878539650255
20
16.113965914382842
30
0
11
30.374960525863798
21
16.150652997946867
31
0
0
LINE
5
115
100
AcDbEntity
8
0
100
AcDbLine
10
30.374960525863798
20
16.150652997946867
30
0
11
0
21
0
31
0
0
SPLINE
5
116
100
AcDbEntity
8
0
100
AcDbSpline
70
4
71
5
72
31
73
25
74
0
42
0.000000001
43
0.0000000001
44
0.0000000001
40
0
40
0
40
0
40
0
40
0
40
0
40
0.050000000000000003
40
0.10000000000000001
40
0.15000000000000002
40
0.20000000000000001
40
0.25
40
0.29999999999999999
40
0.34999999999999998
40
0.39999999999999997
40
0.44999999999999996
40
0.49999999999999994
40
0.54999999999999993
40
0.59999999999999998
40
0.65000000000000002
40
0.70000000000000007
40
0.75000000000000011
40
0.80000000000000016
40
0.8500000000000002
40
0.90000000000000024
40
0.95000000000000029
40
1
40
1
40
1
40
1
40
1
40
1
41
1
41
1
41
1
41
1
41
1
41
1
41
1
41
1
41
1
41
1
41
1
41
1
41
1
41
1
41
1
41
1
41
1
41
1
41
1
41
1
41
1
41
1
41
1
41
1
41
1
10
90.662107454903492
20
47.695523069178527
30
0
10
91.341349096014852
20
47.665854670920993
30
0
10
92.70513810708178
20
47.557350531676484
30
0
10
94.766736744619806
20
47.247094534768593
30
0
10
97.548003028744603
20
46.533602029553762
30
0
10
101.07508324898581
20
45.118981108520643
30
0
10
104.63584498327771
20
43.160324235195439
30
0
10
108.19111813981755
20
40.65236472789362
30
0
10
111.67207311219771
20
37.618456151898791
30
0
10
114.96737259264358
20
34.129388514753884
30
0
10
117.92851729493347
20
30.303693767691232
30
0
10
120.39589967277927
20
26.28714829836365
30
0
10
122.21897058594234
20
22.23877597248428
30
0
10
123.28039223973592
20
18.314354277896676
30
0
10
123.51720552471636
20
14.652026153753683
30
0
10
122.95069389197005
20
11.354477731100216
30
0
10
121.69628548815695
20
8.4789071135909904
30
0
10
119.91767862455114
20
6.048514506689
30
0
10
117.79208746866131
20
4.0590812998501331
30
0
10
115.47342014524297
20
2.4866404098766659
30
0
10
113.05309105085507
20
1.2934876394329549
30
0
10
111.06950706491359
20
0.60986760520092376
30
0
10
109.56074287056376
20
0.23476903500524998
30
0
10
108.54531420576623
20
0.043938616594026064
30
0
10
108.03520414423349
20
-0.03666774615434798
30
0
0
ENDSEC
0
SECTION
2
OBJECTS
0
DICTIONARY
5
C
100
AcDbDictionary
3
ACAD_GROUP
350
D
3
ACAD_MLINESTYLE
350
17
0
DICTIONARY
5
D
100
AcDbDictionary
0
DICTIONARY
5
1A
330
C
100
AcDbDictionary
0
DICTIONARY
5
17
100
AcDbDictionary
0
ENDSEC
0
EOF
